<svg id="Layer_1" data-name="Layer 1" xmlns="http://www.w3.org/2000/svg" width="806.3" height="598.67" viewBox="0 0 806.3 598.67">
  <defs>
    <style>
      .cls-1 {
        fill: #bf616a;
      }

      .cls-2 {
        fill: #f2f2f2;
      }
    </style>
  </defs>
  <g>
    <path class="cls-1" d="M806,508.6h0v-2.4c-.1-12.4-.8-67.1-4.6-87.6-2.9-15.5-17.7-102.5-32-144.6-9.4-27.7-13.1-53-17-64.9-12-35.7-33-65.7-33-65.7s-9.5-13.1-10.1-16.3-4.7-8.6-4.7-8.6a53.73,53.73,0,0,0-7.4-1.7h0v-6.9a2.14,2.14,0,0,0-1.1-1.9c-4.5-2.9-23.4-13.6-51.5-13.6-26.9,0-41.1,5.9-45.1,8a2.2,2.2,0,0,0-1.2,2v11h0c-7.4,1.2-9.6,2.4-9.6,2.4a22.51,22.51,0,0,1-5.9,4.8c-3.5,1.8-11.7,1.7-11.7,1.7H537.7a1,1,0,0,0-.9.3,5.3,5.3,0,0,0-.6,2h-1.6a6.6,6.6,0,0,0-5.7-4.1H277.2a6.72,6.72,0,0,0-5.7,4.1h-1.6a7.13,7.13,0,0,0-.6-2,1.06,1.06,0,0,0-.9-.3H235s-8.2.2-11.7-1.7a20.51,20.51,0,0,1-5.9-4.8s-2.1-1.2-9.6-2.4h0v-11a2.27,2.27,0,0,0-1.2-2c-4-2-18.2-8-45.1-8-28.2,0-47,10.7-51.5,13.6a2.14,2.14,0,0,0-1.1,1.9v6.9h0c-5.1,1-7.4,1.7-7.4,1.7s-4.1,5.3-4.7,8.6-10.1,16.3-10.1,16.3-21,30-33,65.7c-4,11.9-7.7,37.2-17,64.9C22.4,316.1,7.6,403.1,4.7,418.6.9,439.1.2,493.8.1,506.2v2.4h0v.2h0c.2,2.5,3.6,35.7,20.8,59.5h0c.5.7,1.1,1.4,1.6,2.1a.1.1,0,0,0,.1.1c.5.7,1.1,1.4,1.6,2h0c.6.7,1.1,1.3,1.7,1.9l.2.2c.6.6,1.1,1.2,1.7,1.8l.1.1c.6.6,1.2,1.2,1.8,1.7l.3.3c.6.5,1.2,1,1.8,1.6l.1.1c.6.5,1.3,1,1.9,1.5.2.1.3.2.5.3a24.26,24.26,0,0,0,2,1.4c31.7,21.5,56.7,14,56.7,14h.1c.1,0,.1,0,.2-.1h.1c.1,0,.3-.1.4-.1h0c.2,0,.3-.1.5-.2h.1a6.37,6.37,0,0,1,.7-.2c.1,0,.1,0,.2-.1.3-.1.5-.2.8-.3h.1l.9-.3c.1,0,.1,0,.2-.1a7.6,7.6,0,0,0,1.1-.4c.1,0,.2-.1.3-.1a6.12,6.12,0,0,0,1.2-.5c.1,0,.1-.1.2-.1.4-.2.8-.3,1.2-.5a.35.35,0,0,0,.2-.1c.4-.2.9-.4,1.4-.6.1,0,.2-.1.3-.1a10.09,10.09,0,0,0,1.5-.7c.1,0,.2-.1.3-.1a10.09,10.09,0,0,0,1.5-.7.35.35,0,0,0,.2-.1c.5-.3,1.1-.5,1.7-.8.1-.1.3-.1.4-.2.6-.3,1.1-.6,1.7-.9.1-.1.2-.1.3-.2.6-.3,1.1-.6,1.7-.9.1,0,.1-.1.2-.1.6-.3,1.2-.7,1.9-1.1a.76.76,0,0,1,.4-.2c.6-.4,1.3-.7,1.9-1.1a.76.76,0,0,1,.4-.2c.7-.4,1.3-.8,2-1.2a.1.1,0,0,0,.1-.1h0a118.68,118.68,0,0,0,31.5-29.6c.5-.7,1-1.4,1.5-2.2.1-.2.3-.4.4-.6a16.44,16.44,0,0,0,1.4-2.2c0-.1.1-.1.1-.2.5-.8,1.1-1.7,1.6-2.5.1-.2.2-.3.3-.5.5-.8,1-1.7,1.5-2.5l.1-.1c.6-1,1.1-1.9,1.7-2.9.1-.1.1-.2.2-.3.5-1,1.1-2,1.7-3h0l1.8-3.3V535c21.9-41.6,44.3-108.8,44.3-108.8a24.5,24.5,0,0,1,5.7-5.3,15.79,15.79,0,0,1,6.3-2.6h1.9a76.55,76.55,0,0,0,106.9.1h36c0,2.8,1.8,2.2,4.6,2.2h67.9c2.8,0,5.5.6,5.5-2.2h35.9a76.55,76.55,0,0,0,106.9-.1H587a15.79,15.79,0,0,1,6.3,2.6,24.5,24.5,0,0,1,5.7,5.3s22.5,67.2,44.3,108.8v.1l1.8,3.3h0c.6,1,1.1,2,1.7,3,.1.1.1.2.2.3.6,1,1.1,2,1.7,2.9l.1.1c.5.9,1,1.7,1.5,2.5.1.2.2.3.3.5.5.9,1.1,1.7,1.6,2.5,0,.1.1.1.1.2.5.7,1,1.5,1.4,2.2.1.2.3.4.4.6.5.7,1,1.5,1.5,2.2A117.2,117.2,0,0,0,687.1,585h0a.1.1,0,0,1,.1.1c.7.4,1.3.8,2,1.2a.76.76,0,0,0,.4.2,18.58,18.58,0,0,0,1.9,1.1.76.76,0,0,0,.4.2c.6.4,1.3.7,1.9,1.1.1,0,.1.1.2.1.6.3,1.2.6,1.7.9.1.1.2.1.3.2.6.3,1.2.6,1.7.9.1.1.3.1.4.2.6.3,1.1.5,1.7.8a.35.35,0,0,1,.2.1c.5.2,1,.5,1.5.7.1,0,.2.1.3.1a10.09,10.09,0,0,1,1.5.7c.1,0,.2.1.3.1.5.2.9.4,1.4.6a.35.35,0,0,1,.2.1c.4.2.8.3,1.2.5.1,0,.1.1.2.1.4.2.8.3,1.2.5.1,0,.2.1.3.1.4.1.7.3,1.1.4.1,0,.1,0,.2.1l.9.3h.1a6.89,6.89,0,0,1,.8.3c.1,0,.1,0,.2.1s.5.1.7.2h.1c.2.1.4.1.5.2h0c.2,0,.3.1.4.1h.1a.35.35,0,0,1,.2.1h.1s25,7.5,56.7-14c.7-.5,1.3-.9,2-1.4.2-.1.3-.2.5-.3.6-.5,1.3-1,1.9-1.5l.1-.1c.6-.5,1.2-1,1.8-1.6l.3-.3c.6-.6,1.2-1.1,1.8-1.7l.1-.1c.6-.6,1.1-1.2,1.7-1.8l.2-.2c.6-.6,1.1-1.3,1.7-1.9h0c.6-.7,1.1-1.3,1.6-2a.1.1,0,0,1,.1-.1c.5-.7,1.1-1.4,1.6-2.1h0c17.2-23.8,20.6-57,20.8-59.5h0v-.1S806,508.7,806,508.6Z" transform="translate(-0.1 0)"/>
    <path class="cls-1" d="M608.8,89.3c.5,0,1.1-.1,1.6-.1,4.4-.3,9.6-.6,15-.9,1.3-.1,2.7-.1,4-.2l8-.3c1.3,0,2.6-.1,3.8-.1s2.4,0,3.6-.1h1.7c17.9,0,50.6,3.2,50.6,3.2h0a.77.77,0,0,0-.1-.3v-.3h0a.37.37,0,0,0-.1-.3v-.3a3.09,3.09,0,0,0-.2-.8v-.1c0-.1-.1-.3-.1-.4v-.1c-2.3-11-11.4-53.8-19.4-66.8C668.1,6.4,653.5,0,642.6,0S629,3.4,619.9,10.1,604.6,30.7,603,38c-1.2,5.5-3.3,32.4-4.3,45.2h0V86h0c0,.6-.1,1.1-.1,1.6v.5h0a17.36,17.36,0,0,0-.1,1.8V90s1.9-.1,5-.4C604.8,89.5,606.7,89.4,608.8,89.3Z" transform="translate(-0.1 0)"/>
    <path class="cls-1" d="M207.8,90h0c0-.3-.1-.9-.1-1.9h0v-.5c0-.5-.1-1-.1-1.6h0V83.3c-1-12.8-3.1-39.7-4.3-45.2-1.6-7.3-7.7-21.3-16.9-27.9S174.2,0,163.4,0,138,6.4,128.8,21.4c-8,13-17.1,55.8-19.4,66.8v.1c0,.2-.1.3-.1.4v.1c-.1.3-.1.6-.2.8v.3a.37.37,0,0,1-.1.3h0v.3a.37.37,0,0,1-.1.3h0s32.7-3.2,50.6-3.2S207.8,90,207.8,90Z" transform="translate(-0.1 0)"/>
  </g>
</svg>
