<svg id="Layer_1" data-name="Layer 1" xmlns="http://www.w3.org/2000/svg" width="286" height="94" viewBox="0 0 286 94">
  <defs>
    <style>
      .cls-1, .cls-2 {
        fill: #242424;
      }

      .cls-3 {
        fill: #212121;
      }

      .cls-4, .cls-5 {
        fill: #e2e2e2;
      }

      .cls-6 {
        fill: #dddddd;
      }
    </style>
  </defs>
  <g>
    <g>
      <path class="cls-1" d="M47,92.5A45.5,45.5,0,1,1,92.5,47,45.54,45.54,0,0,1,47,92.5Z"/>
      <path class="cls-2" d="M47,3A44,44,0,1,1,3,47,44,44,0,0,1,47,3m0-3A47,47,0,1,0,94,47,46.95,46.95,0,0,0,47,0Z"/>
    </g>
    <circle class="cls-3" cx="47" cy="47" r="27.3"/>
  </g>
  <g>
    <g>
      <path class="cls-4" d="M239,92.5A45.5,45.5,0,1,1,284.5,47,45.54,45.54,0,0,1,239,92.5Z"/>
      <path class="cls-5" d="M239,3a44,44,0,1,1-44,44A44,44,0,0,1,239,3m0-3a47,47,0,1,0,47,47A46.95,46.95,0,0,0,239,0Z"/>
    </g>
    <circle class="cls-6" cx="239" cy="47" r="27.3"/>

  </g>
  <g>
    <g>
      <path class="cls-4" d="M143,92.5A45.5,45.5,0,1,1,188.5,47,45.54,45.54,0,0,1,143,92.5Z"/>
      <path class="cls-5" d="M143,3A44,44,0,1,1,99,47,44,44,0,0,1,143,3m0-3a47,47,0,1,0,47,47A46.95,46.95,0,0,0,143,0Z"/>
    </g>
    <circle class="cls-6" cx="143" cy="47" r="27.3"/>
  </g>
</svg>
